<?xml version="1.0" encoding="utf-8"?>
<!-- Generator: Adobe Illustrator 16.0.0, SVG Export Plug-In . SVG Version: 6.00 Build 0)  -->
<!DOCTYPE svg PUBLIC "-//W3C//DTD SVG 1.1//EN" "http://www.w3.org/Graphics/SVG/1.1/DTD/svg11.dtd">
<svg version="1.1" id="Layer_1" xmlns="http://www.w3.org/2000/svg" xmlns:xlink="http://www.w3.org/1999/xlink" x="0px" y="0px"
	 width="300px" height="223.76px" viewBox="-76.006 558.537 300 223.76" enable-background="new -76.006 558.537 300 223.76"
	 xml:space="preserve">
<path fill="#010101" d="M18.726,598.938l-43.586,34.055l-4.878,51.686l36.158,42.294l159.266,14.924l12.041-127.77L18.726,598.938z
	 M-14.094,665.54c-2.451-0.232-4.248-2.418-4.017-4.869c0.24-2.452,2.419-4.249,4.87-4.017c2.451,0.23,4.248,2.409,4.016,4.869
	C-9.456,663.975-11.634,665.772-14.094,665.54z"/>
<path fill="#F6EB16" d="M19.761,601.836l-42.004,32.481l-4.862,49.326l34.858,40.457l155.587,14.89l11.479-122.263L19.761,601.836z
	 M-6.649,661.764c-0.365,3.884-3.809,6.726-7.686,6.36c-3.883-0.372-6.725-3.818-6.361-7.702c0.374-3.875,3.819-6.717,7.703-6.352
	C-9.117,654.442-6.276,657.887-6.649,661.764z"/>
<polygon fill="#010101" points="49.501,628.554 84.698,631.916 83.687,642.458 67.836,640.943 67.514,644.338 81.974,645.722 
	81.046,655.387 66.668,654.021 66.305,657.854 82.511,659.403 81.551,669.424 46.097,666.027 "/>
<path fill="#010101" d="M89.948,657.034l-6.659,9.823c0,0,8.365,4.496,19.969,5.506c11.585,1.027,20.083-2.294,22.808-7.841
	c2.732-5.533-0.539-11.829-5.905-13.574c-5.374-1.739-14.692-3.595-13.723-5.442c0.97-1.838,6.817-1.458,10.369,0.026
	c3.553,1.482,4.522,2.367,4.522,2.367l6.112-8.736c0,0-6.493-4.754-18.644-5.476c-12.157-0.72-21.093,5.368-21.714,11.023
	c-0.629,5.657,3.006,8.994,8.53,11.016c0,0,4.688,1.508,8.223,2.277c3.528,0.779,5.772,3.104,1.557,3.934
	C101.178,662.766,92.507,659.651,89.948,657.034z"/>
<polygon fill="#010101" points="138.322,649.434 127.961,648.446 129.121,636.247 169.022,640.057 167.863,652.256 157.494,651.263 
	155.076,676.612 136.161,674.808 "/>
<path fill="#010101" d="M52.441,671.387l18.31,1.656l-1.946,21.268c0,0-1.806,5.102,4.29,5.688c6.104,0.582,5.831-4.901,5.831-4.901
	l2.004-20.995l18.385,1.757l-2.36,24.745c0,0-2.169,13.508-24.654,11.362c-22.477-2.145-22.17-16.356-22.17-16.356L52.441,671.387z"
	/>
<polygon fill="#010101" points="120.4,677.88 125.651,688.224 132.426,679.031 153.768,681.06 133.858,700.786 132.318,716.902 
	113.593,715.113 115.101,699.263 99.133,675.933 "/>
<path fill="#010101" d="M40.623,688.737c0,0,7.711-1.516,7.513-9.393c-0.199-7.884-15.935-9.838-15.935-9.838l-25.972-2.575
	l-3.544,37.606c0,0,20.729,2.179,26.765,2.667c6.038,0.479,18.204-0.034,19.405-7.811C50.047,691.611,40.623,688.737,40.623,688.737
	z M22.892,677.972c0,0,7.976-0.737,7.537,3.005c-0.447,3.734-8.025,2.047-8.025,2.047L22.892,677.972z M21.227,697.15l0.415-6.111
	c0,0,9.971-0.373,9.647,3.909C30.966,699.229,21.227,697.15,21.227,697.15z"/>
<path fill="#010101" d="M36.83,645.647c0,0,7.711-1.516,7.512-9.393c-0.199-7.874-15.934-9.846-15.934-9.846l-25.98-2.567
	l-3.536,37.606c0,0,20.729,2.18,26.758,2.659c6.037,0.497,18.203-0.024,19.404-7.803C46.254,648.521,36.83,645.647,36.83,645.647z
	 M19.256,634.98c0,0,7.984-0.729,7.544,3.006c-0.447,3.734-8.024,2.045-8.024,2.045L19.256,634.98z M17.6,654.17l0.414-6.121
	c0,0,9.962-0.364,9.648,3.917C27.339,656.239,17.6,654.17,17.6,654.17z"/>
<path fill="#010101" d="M153.909,684.753c0.157-1.664,1.64-2.89,3.305-2.732c1.664,0.157,2.898,1.647,2.741,3.313
	c-0.157,1.664-1.648,2.891-3.313,2.733C154.977,687.9,153.751,686.418,153.909,684.753z M159.208,685.258
	c0.141-1.415-0.786-2.534-2.045-2.649c-1.267-0.125-2.386,0.805-2.517,2.212c-0.141,1.415,0.786,2.532,2.045,2.657
	C157.958,687.595,159.076,686.675,159.208,685.258z M155.929,683.205l1.267,0.123c0.829,0.075,1.242,0.407,1.176,1.127
	c-0.058,0.588-0.422,0.837-0.986,0.837l0.778,1.581l-0.662-0.058l-0.737-1.565l-0.389-0.032l-0.142,1.473l-0.637-0.058
	L155.929,683.205z M156.426,684.729l0.555,0.059c0.38,0.033,0.711,0.016,0.753-0.448c0.042-0.396-0.315-0.496-0.646-0.528
	l-0.571-0.06L156.426,684.729z"/>
</svg>
